 http://www.imdb.com/title/tt0379217/

Source: Coffee.and.Cigarettes.2003.720p.BluRay.X264-AMIABLE Thanks!

Subs: Croatian, Danish, Dutch, English, French, Greek, Portuguese and Romanian.

Sample and Screens included.

General
Complete name                            : Coffee and Cigarettes-720p MP4 AAC x264 BRRip 2003-CC.mp4
Format                                   : MPEG-4
Format profile                           : Base Media
Codec ID                                 : isom
File size                                : 2.72 GiB
Duration                                 : 1h 36mn
Overall bit rate mode                    : Variable
Overall bit rate                         : 4 042 Kbps
Encoded date                             : UTC 2012-09-26 18:21:58

Video
ID                                       : 1
Format                                   : AVC
Format/Info                              : Advanced Video Codec
Format profile                           : High@L3.1
Format settings, CABAC                   : Yes
Format settings, ReFrames                : 5 frames
Codec ID                                 : avc1
Codec ID/Info                            : Advanced Video Coding
Duration                                 : 1h 36mn
Bit rate                                 : 3 804 Kbps
Maximum bit rate                         : 22.2 Mbps
Width                                    : 1 280 pixels
Height                                   : 720 pixels
Display aspect ratio                     : 16:9
Frame rate mode                          : Variable
Frame rate                               : 23.976 fps
Minimum frame rate                       : 19.048 fps
Maximum frame rate                       : 25.000 fps
Color space                              : YUV
Chroma subsampling                       : 4:2:0
Bit depth                                : 8 bits
Scan type                                : Progressive
Bits/(Pixel*Frame)                       : 0.172
Stream size                              : 2.50 GiB (92%)
Writing library                          : x264 core 112

Audio
ID                                       : 2
Format                                   : AAC
Format/Info                              : Advanced Audio Codec
Format profile                           : LC
Codec ID                                 : 40
Duration                                 : 1h 36mn
Bit rate mode                            : Variable
Bit rate                                 : 320 Kbps
Maximum bit rate                         : 426 Kbps
Channel(s)                               : 2 channels
Channel positions                        : Front: L R
Sampling rate                            : 48.0 KHz
Compression mode                         : Lossy
Delay relative to video                  : 83ms
Stream size                              : 221 MiB (8%)
Language                                 : English

Enjoy...

Requested by edodeniro.

Coming soon: Batman Begins, The Dark Knight, Down by Law and more...